<mxfile host="Electron" agent="Mozilla/5.0 (Windows NT 10.0; Win64; x64) AppleWebKit/537.36 (KHTML, like Gecko) draw.io/26.0.9 Chrome/128.0.6613.186 Electron/32.2.5 Safari/537.36" version="26.0.9">
  <diagram name="Page-1" id="NnMXzKN-C8ozHN8au883">
    <mxGraphModel dx="1349" dy="2363" grid="1" gridSize="10" guides="1" tooltips="1" connect="1" arrows="1" fold="1" page="1" pageScale="1" pageWidth="850" pageHeight="1100" math="0" shadow="0">
      <root>
        <mxCell id="0" />
        <mxCell id="1" parent="0" />
        <mxCell id="-pjz0rkaRmibch_E9_K_-4" style="edgeStyle=orthogonalEdgeStyle;rounded=0;orthogonalLoop=1;jettySize=auto;html=1;exitX=1;exitY=0.5;exitDx=0;exitDy=0;exitPerimeter=0;endArrow=none;endFill=0;fontStyle=0" parent="1" source="-pjz0rkaRmibch_E9_K_-3" edge="1">
          <mxGeometry relative="1" as="geometry">
            <mxPoint x="260" y="122.5" as="targetPoint" />
          </mxGeometry>
        </mxCell>
        <mxCell id="-pjz0rkaRmibch_E9_K_-3" value="countEn" style="html=1;shadow=0;dashed=0;align=center;verticalAlign=middle;shape=mxgraph.arrows2.arrow;dy=0;dx=10;notch=0;fontFamily=Lucida Console;fontStyle=0" parent="1" vertex="1">
          <mxGeometry x="40" y="110" width="100" height="25" as="geometry" />
        </mxCell>
        <mxCell id="-pjz0rkaRmibch_E9_K_-5" value="" style="rounded=0;whiteSpace=wrap;html=1;fontStyle=0" parent="1" vertex="1">
          <mxGeometry x="260" y="58" width="160" height="200" as="geometry" />
        </mxCell>
        <mxCell id="-pjz0rkaRmibch_E9_K_-6" value="MAKE_COUNT" style="text;html=1;align=left;verticalAlign=bottom;whiteSpace=wrap;rounded=0;fontFamily=Lucida Console;fontStyle=0" parent="1" vertex="1">
          <mxGeometry x="260" y="40" width="160" height="20" as="geometry" />
        </mxCell>
        <mxCell id="-pjz0rkaRmibch_E9_K_-7" value="" style="rounded=0;whiteSpace=wrap;html=1;fontStyle=0" parent="1" vertex="1">
          <mxGeometry x="580" y="98" width="160" height="122" as="geometry" />
        </mxCell>
        <mxCell id="-pjz0rkaRmibch_E9_K_-8" value="CALC_TENS" style="text;html=1;align=left;verticalAlign=bottom;whiteSpace=wrap;rounded=0;fontFamily=Lucida Console;fontStyle=0" parent="1" vertex="1">
          <mxGeometry x="580" y="80" width="160" height="20" as="geometry" />
        </mxCell>
        <mxCell id="-pjz0rkaRmibch_E9_K_-13" style="edgeStyle=orthogonalEdgeStyle;rounded=0;orthogonalLoop=1;jettySize=auto;html=1;exitX=0;exitY=0.5;exitDx=0;exitDy=0;entryX=1;entryY=1;entryDx=0;entryDy=0;endArrow=oval;endFill=1;strokeWidth=4;fontStyle=0" parent="1" source="-pjz0rkaRmibch_E9_K_-9" target="-pjz0rkaRmibch_E9_K_-12" edge="1">
          <mxGeometry relative="1" as="geometry" />
        </mxCell>
        <mxCell id="-pjz0rkaRmibch_E9_K_-9" value="" style="rounded=0;whiteSpace=wrap;html=1;fontStyle=0" parent="1" vertex="1">
          <mxGeometry x="580" y="260" width="160" height="120" as="geometry" />
        </mxCell>
        <mxCell id="-pjz0rkaRmibch_E9_K_-10" value="CALC_ONES" style="text;html=1;align=left;verticalAlign=bottom;whiteSpace=wrap;rounded=0;fontFamily=Lucida Console;fontStyle=0" parent="1" vertex="1">
          <mxGeometry x="580" y="240" width="160" height="20" as="geometry" />
        </mxCell>
        <mxCell id="-pjz0rkaRmibch_E9_K_-11" value="" style="endArrow=none;html=1;rounded=0;entryX=0;entryY=0.5;entryDx=0;entryDy=0;strokeWidth=4;fontStyle=0" parent="1" target="-pjz0rkaRmibch_E9_K_-7" edge="1">
          <mxGeometry width="50" height="50" relative="1" as="geometry">
            <mxPoint x="420" y="160" as="sourcePoint" />
            <mxPoint x="520" y="160" as="targetPoint" />
            <Array as="points">
              <mxPoint x="430" y="160" />
            </Array>
          </mxGeometry>
        </mxCell>
        <mxCell id="-pjz0rkaRmibch_E9_K_-12" value="count" style="text;html=1;align=left;verticalAlign=bottom;whiteSpace=wrap;rounded=0;fontFamily=Lucida Console;fontStyle=0" parent="1" vertex="1">
          <mxGeometry x="431" y="140" width="70" height="20" as="geometry" />
        </mxCell>
        <mxCell id="-pjz0rkaRmibch_E9_K_-15" value="" style="endArrow=none;html=1;rounded=0;strokeWidth=4;fontStyle=0" parent="1" edge="1">
          <mxGeometry width="50" height="50" relative="1" as="geometry">
            <mxPoint x="740" y="161" as="sourcePoint" />
            <mxPoint x="868" y="160" as="targetPoint" />
            <Array as="points">
              <mxPoint x="750" y="161" />
            </Array>
          </mxGeometry>
        </mxCell>
        <mxCell id="-pjz0rkaRmibch_E9_K_-16" value="countTens" style="text;html=1;align=left;verticalAlign=bottom;whiteSpace=wrap;rounded=0;fontFamily=Lucida Console;fontStyle=0" parent="1" vertex="1">
          <mxGeometry x="750" y="140" width="70" height="20" as="geometry" />
        </mxCell>
        <mxCell id="-pjz0rkaRmibch_E9_K_-23" value="" style="endArrow=none;html=1;rounded=0;strokeWidth=4;fontStyle=0" parent="1" edge="1">
          <mxGeometry width="50" height="50" relative="1" as="geometry">
            <mxPoint x="873" y="160" as="sourcePoint" />
            <mxPoint x="979" y="160.32000000000005" as="targetPoint" />
            <Array as="points">
              <mxPoint x="889" y="160.32000000000005" />
            </Array>
          </mxGeometry>
        </mxCell>
        <mxCell id="-pjz0rkaRmibch_E9_K_-26" value="4" style="text;html=1;align=center;verticalAlign=bottom;whiteSpace=wrap;rounded=0;fontFamily=Lucida Console;fontStyle=0" parent="1" vertex="1">
          <mxGeometry x="899" y="175.5" width="61" height="20" as="geometry" />
        </mxCell>
        <mxCell id="-pjz0rkaRmibch_E9_K_-27" value="" style="endArrow=none;html=1;rounded=0;strokeWidth=4;fontStyle=0" parent="1" edge="1">
          <mxGeometry width="50" height="50" relative="1" as="geometry">
            <mxPoint x="740" y="321" as="sourcePoint" />
            <mxPoint x="873" y="320" as="targetPoint" />
            <Array as="points">
              <mxPoint x="750" y="321" />
            </Array>
          </mxGeometry>
        </mxCell>
        <mxCell id="-pjz0rkaRmibch_E9_K_-28" value="countOnes" style="text;html=1;align=left;verticalAlign=bottom;whiteSpace=wrap;rounded=0;fontFamily=Lucida Console;fontStyle=0" parent="1" vertex="1">
          <mxGeometry x="750" y="300" width="70" height="20" as="geometry" />
        </mxCell>
        <mxCell id="-pjz0rkaRmibch_E9_K_-33" value="" style="endArrow=none;html=1;rounded=0;strokeWidth=4;fontStyle=0" parent="1" edge="1">
          <mxGeometry width="50" height="50" relative="1" as="geometry">
            <mxPoint x="879" y="320.32000000000005" as="sourcePoint" />
            <mxPoint x="979" y="320.32000000000005" as="targetPoint" />
            <Array as="points">
              <mxPoint x="889" y="320.32000000000005" />
            </Array>
          </mxGeometry>
        </mxCell>
        <mxCell id="-pjz0rkaRmibch_E9_K_-35" value="4" style="text;html=1;align=center;verticalAlign=bottom;whiteSpace=wrap;rounded=0;fontFamily=Lucida Console;fontStyle=0" parent="1" vertex="1">
          <mxGeometry x="899" y="340" width="61" height="20" as="geometry" />
        </mxCell>
        <mxCell id="-pjz0rkaRmibch_E9_K_-36" value="" style="endArrow=none;html=1;rounded=0;strokeWidth=4;fontStyle=0" parent="1" edge="1">
          <mxGeometry width="50" height="50" relative="1" as="geometry">
            <mxPoint x="978" y="160" as="sourcePoint" />
            <mxPoint x="998" y="142" as="targetPoint" />
          </mxGeometry>
        </mxCell>
        <mxCell id="-pjz0rkaRmibch_E9_K_-37" value="" style="endArrow=none;html=1;rounded=0;strokeWidth=4;fontStyle=0" parent="1" edge="1">
          <mxGeometry width="50" height="50" relative="1" as="geometry">
            <mxPoint x="978" y="321" as="sourcePoint" />
            <mxPoint x="998" y="303" as="targetPoint" />
          </mxGeometry>
        </mxCell>
        <mxCell id="-pjz0rkaRmibch_E9_K_-38" value="" style="endArrow=none;html=1;rounded=0;strokeWidth=4;fontStyle=0" parent="1" edge="1">
          <mxGeometry width="50" height="50" relative="1" as="geometry">
            <mxPoint x="999" y="335" as="sourcePoint" />
            <mxPoint x="999" y="60" as="targetPoint" />
          </mxGeometry>
        </mxCell>
        <mxCell id="-pjz0rkaRmibch_E9_K_-39" value="" style="endArrow=none;html=1;rounded=0;strokeWidth=4;fontStyle=0" parent="1" edge="1">
          <mxGeometry width="50" height="50" relative="1" as="geometry">
            <mxPoint x="998" y="59.82000000000005" as="sourcePoint" />
            <mxPoint x="1140" y="60" as="targetPoint" />
            <Array as="points">
              <mxPoint x="1008" y="59.82000000000005" />
            </Array>
          </mxGeometry>
        </mxCell>
        <mxCell id="-pjz0rkaRmibch_E9_K_-41" value="8" style="text;html=1;align=center;verticalAlign=bottom;whiteSpace=wrap;rounded=0;fontFamily=Lucida Console;fontStyle=0" parent="1" vertex="1">
          <mxGeometry x="1043" y="75.5" width="61" height="20" as="geometry" />
        </mxCell>
        <mxCell id="-pjz0rkaRmibch_E9_K_-43" value="digits" style="html=1;shadow=0;dashed=0;align=center;verticalAlign=middle;shape=mxgraph.arrows2.arrow;dy=0;dx=10;notch=0;fontFamily=Lucida Console;fontStyle=0" parent="1" vertex="1">
          <mxGeometry x="1140" y="46" width="100" height="25" as="geometry" />
        </mxCell>
        <mxCell id="-pjz0rkaRmibch_E9_K_-44" value="7:4" style="text;html=1;align=center;verticalAlign=bottom;whiteSpace=wrap;rounded=0;fontFamily=Lucida Console;fontStyle=0" parent="1" vertex="1">
          <mxGeometry x="937" y="137.5" width="61" height="20" as="geometry" />
        </mxCell>
        <mxCell id="-pjz0rkaRmibch_E9_K_-46" value="3:0" style="text;html=1;align=center;verticalAlign=bottom;whiteSpace=wrap;rounded=0;fontFamily=Lucida Console;fontStyle=0" parent="1" vertex="1">
          <mxGeometry x="937" y="297" width="61" height="20" as="geometry" />
        </mxCell>
        <mxCell id="J_qNCnFpd20M9ctgEOp4-4" value="" style="endArrow=none;html=1;rounded=0;strokeWidth=1;fontStyle=0" parent="1" edge="1">
          <mxGeometry width="50" height="50" relative="1" as="geometry">
            <mxPoint x="925" y="170.5" as="sourcePoint" />
            <mxPoint x="934" y="148.5" as="targetPoint" />
          </mxGeometry>
        </mxCell>
        <mxCell id="J_qNCnFpd20M9ctgEOp4-6" value="" style="endArrow=none;html=1;rounded=0;strokeWidth=1;fontStyle=0" parent="1" edge="1">
          <mxGeometry width="50" height="50" relative="1" as="geometry">
            <mxPoint x="925" y="331" as="sourcePoint" />
            <mxPoint x="934" y="309" as="targetPoint" />
          </mxGeometry>
        </mxCell>
        <mxCell id="J_qNCnFpd20M9ctgEOp4-9" value="" style="endArrow=none;html=1;rounded=0;strokeWidth=1;fontStyle=0" parent="1" edge="1">
          <mxGeometry width="50" height="50" relative="1" as="geometry">
            <mxPoint x="1069" y="70" as="sourcePoint" />
            <mxPoint x="1078" y="48" as="targetPoint" />
          </mxGeometry>
        </mxCell>
        <mxCell id="J_qNCnFpd20M9ctgEOp4-14" value="" style="group;fontStyle=0" parent="1" vertex="1" connectable="0">
          <mxGeometry x="864" y="153" width="10" height="14" as="geometry" />
        </mxCell>
        <mxCell id="-pjz0rkaRmibch_E9_K_-19" value="" style="endArrow=none;html=1;rounded=0;strokeWidth=1;fontStyle=0" parent="J_qNCnFpd20M9ctgEOp4-14" edge="1">
          <mxGeometry width="50" height="50" relative="1" as="geometry">
            <mxPoint y="14" as="sourcePoint" />
            <mxPoint x="5" y="7" as="targetPoint" />
          </mxGeometry>
        </mxCell>
        <mxCell id="-pjz0rkaRmibch_E9_K_-20" value="" style="endArrow=none;html=1;rounded=0;strokeWidth=1;fontStyle=0" parent="J_qNCnFpd20M9ctgEOp4-14" edge="1">
          <mxGeometry width="50" height="50" relative="1" as="geometry">
            <mxPoint as="sourcePoint" />
            <mxPoint x="5" y="7" as="targetPoint" />
          </mxGeometry>
        </mxCell>
        <mxCell id="J_qNCnFpd20M9ctgEOp4-12" value="" style="endArrow=none;html=1;rounded=0;strokeWidth=1;fontStyle=0" parent="J_qNCnFpd20M9ctgEOp4-14" edge="1">
          <mxGeometry width="50" height="50" relative="1" as="geometry">
            <mxPoint x="5" y="14" as="sourcePoint" />
            <mxPoint x="10" y="7" as="targetPoint" />
          </mxGeometry>
        </mxCell>
        <mxCell id="J_qNCnFpd20M9ctgEOp4-13" value="" style="endArrow=none;html=1;rounded=0;strokeWidth=1;fontStyle=0" parent="J_qNCnFpd20M9ctgEOp4-14" edge="1">
          <mxGeometry width="50" height="50" relative="1" as="geometry">
            <mxPoint x="5" as="sourcePoint" />
            <mxPoint x="10" y="7" as="targetPoint" />
          </mxGeometry>
        </mxCell>
        <mxCell id="J_qNCnFpd20M9ctgEOp4-15" value="" style="group;fontStyle=0" parent="1" vertex="1" connectable="0">
          <mxGeometry x="869" y="313" width="10" height="14" as="geometry" />
        </mxCell>
        <mxCell id="J_qNCnFpd20M9ctgEOp4-16" value="" style="endArrow=none;html=1;rounded=0;strokeWidth=1;fontStyle=0" parent="J_qNCnFpd20M9ctgEOp4-15" edge="1">
          <mxGeometry width="50" height="50" relative="1" as="geometry">
            <mxPoint y="14" as="sourcePoint" />
            <mxPoint x="5" y="7" as="targetPoint" />
          </mxGeometry>
        </mxCell>
        <mxCell id="J_qNCnFpd20M9ctgEOp4-17" value="" style="endArrow=none;html=1;rounded=0;strokeWidth=1;fontStyle=0" parent="J_qNCnFpd20M9ctgEOp4-15" edge="1">
          <mxGeometry width="50" height="50" relative="1" as="geometry">
            <mxPoint as="sourcePoint" />
            <mxPoint x="5" y="7" as="targetPoint" />
          </mxGeometry>
        </mxCell>
        <mxCell id="J_qNCnFpd20M9ctgEOp4-18" value="" style="endArrow=none;html=1;rounded=0;strokeWidth=1;fontStyle=0" parent="J_qNCnFpd20M9ctgEOp4-15" edge="1">
          <mxGeometry width="50" height="50" relative="1" as="geometry">
            <mxPoint x="5" y="14" as="sourcePoint" />
            <mxPoint x="10" y="7" as="targetPoint" />
          </mxGeometry>
        </mxCell>
        <mxCell id="J_qNCnFpd20M9ctgEOp4-19" value="" style="endArrow=none;html=1;rounded=0;strokeWidth=1;fontStyle=0" parent="J_qNCnFpd20M9ctgEOp4-15" edge="1">
          <mxGeometry width="50" height="50" relative="1" as="geometry">
            <mxPoint x="5" as="sourcePoint" />
            <mxPoint x="10" y="7" as="targetPoint" />
          </mxGeometry>
        </mxCell>
        <mxCell id="EFJQyNqaosxOXWlHlTui-3" style="edgeStyle=orthogonalEdgeStyle;rounded=0;orthogonalLoop=1;jettySize=auto;html=1;exitX=0;exitY=0.5;exitDx=0;exitDy=0;startArrow=none;startFill=0;strokeWidth=4;endArrow=oval;endFill=1;fontStyle=0" parent="1" source="EFJQyNqaosxOXWlHlTui-1" edge="1">
          <mxGeometry relative="1" as="geometry">
            <mxPoint x="501.62162162162156" y="320.78378378378375" as="targetPoint" />
          </mxGeometry>
        </mxCell>
        <mxCell id="EFJQyNqaosxOXWlHlTui-1" value="" style="rounded=0;whiteSpace=wrap;html=1;fontStyle=0" parent="1" vertex="1">
          <mxGeometry x="580" y="418" width="160" height="122" as="geometry" />
        </mxCell>
        <mxCell id="EFJQyNqaosxOXWlHlTui-2" value="MAKE_MASK" style="text;html=1;align=left;verticalAlign=bottom;whiteSpace=wrap;rounded=0;fontFamily=Lucida Console;fontStyle=0" parent="1" vertex="1">
          <mxGeometry x="580" y="400" width="160" height="20" as="geometry" />
        </mxCell>
        <mxCell id="EFJQyNqaosxOXWlHlTui-4" value="" style="endArrow=none;html=1;rounded=0;strokeWidth=4;fontStyle=0" parent="1" edge="1">
          <mxGeometry width="50" height="50" relative="1" as="geometry">
            <mxPoint x="740" y="477.82000000000005" as="sourcePoint" />
            <mxPoint x="855" y="477.5" as="targetPoint" />
            <Array as="points">
              <mxPoint x="750" y="477.82000000000005" />
            </Array>
          </mxGeometry>
        </mxCell>
        <mxCell id="EFJQyNqaosxOXWlHlTui-5" value="" style="endArrow=none;html=1;rounded=0;strokeWidth=1;fontStyle=0" parent="1" edge="1">
          <mxGeometry width="50" height="50" relative="1" as="geometry">
            <mxPoint x="786" y="488.5" as="sourcePoint" />
            <mxPoint x="795" y="466.5" as="targetPoint" />
          </mxGeometry>
        </mxCell>
        <mxCell id="EFJQyNqaosxOXWlHlTui-6" value="16" style="text;html=1;align=center;verticalAlign=bottom;whiteSpace=wrap;rounded=0;fontFamily=Lucida Console;fontStyle=0" parent="1" vertex="1">
          <mxGeometry x="759" y="490.5" width="61" height="20" as="geometry" />
        </mxCell>
        <mxCell id="EFJQyNqaosxOXWlHlTui-7" value="mask" style="text;html=1;align=center;verticalAlign=bottom;whiteSpace=wrap;rounded=0;fontFamily=Lucida Console;fontStyle=0" parent="1" vertex="1">
          <mxGeometry x="759" y="447.5" width="70" height="20" as="geometry" />
        </mxCell>
        <mxCell id="EFJQyNqaosxOXWlHlTui-9" value="mask" style="html=1;shadow=0;dashed=0;align=center;verticalAlign=middle;shape=mxgraph.arrows2.arrow;dy=0;dx=10;notch=0;fontFamily=Lucida Console;fontStyle=0" parent="1" vertex="1">
          <mxGeometry x="855" y="465.5" width="100" height="25" as="geometry" />
        </mxCell>
        <mxCell id="j66RKtAaf9sADyc2v5ia-1" value="reset" style="text;html=1;align=right;verticalAlign=bottom;whiteSpace=wrap;rounded=0;fontFamily=Lucida Console;spacingRight=12;" vertex="1" parent="1">
          <mxGeometry x="140" y="198.69" width="120" height="20" as="geometry" />
        </mxCell>
        <mxCell id="j66RKtAaf9sADyc2v5ia-2" value="" style="endArrow=none;html=1;rounded=0;" edge="1" parent="1">
          <mxGeometry width="50" height="50" relative="1" as="geometry">
            <mxPoint x="140" y="218.69" as="sourcePoint" />
            <mxPoint x="260" y="218.69" as="targetPoint" />
          </mxGeometry>
        </mxCell>
        <mxCell id="j66RKtAaf9sADyc2v5ia-3" value="clock" style="text;html=1;align=right;verticalAlign=bottom;whiteSpace=wrap;rounded=0;fontFamily=Lucida Console;spacingRight=12;" vertex="1" parent="1">
          <mxGeometry x="140" y="218.99999999999994" width="120" height="20" as="geometry" />
        </mxCell>
        <mxCell id="j66RKtAaf9sADyc2v5ia-4" value="" style="endArrow=none;html=1;rounded=0;" edge="1" parent="1">
          <mxGeometry width="50" height="50" relative="1" as="geometry">
            <mxPoint x="140" y="238.99999999999994" as="sourcePoint" />
            <mxPoint x="260" y="238.99999999999994" as="targetPoint" />
          </mxGeometry>
        </mxCell>
      </root>
    </mxGraphModel>
  </diagram>
</mxfile>
